<?xml version="1.0" encoding="UTF-8"?>
<!-- Created with Inkscape (http://www.inkscape.org/) -->
<svg width="1e3" height="250" version="1.1" viewBox="0 0 264.58 66.146" xmlns="http://www.w3.org/2000/svg" class="font-mono">
 <text x="27.433672" y="45.686985" fill="#000000" font-size="37.886px" stroke-width=".94715" style="line-height:1.25;font-family:'Fira Code' monospace;" xml:space="preserve" class="font-mono"><tspan x="27.433672" y="45.686985" fill="#000000" stroke-width=".94715">&lt;indig /&gt;</tspan></text>
 <path d="m187.88 22.793c-0.23114 0.23113-0.38144 0.53458-0.61258 0.76572-0.11556 0.11555-0.25637 0.20278-0.38286 0.30626-0.44305 0.36253-0.42009 0.36079-0.84228 0.68916-0.10074 0.0783-0.3059 0.10211-0.30628 0.22971-0.0822 27.913-0.15315 17.847-0.22972 0.22972-8.5e-4 -0.21656-0.30628 0.30629-0.45943 0.45942-0.0511 0.0511-0.10209 0.1021-0.15313 0.15315-0.0511 0.0511-0.0944 0.11119-0.15315 0.15315-0.1211 0.0865-0.27085 0.1317-0.38285 0.22969-0.096 0.084-0.13947 0.21606-0.22972 0.3063-0.3019 0.3019-0.17566 6e-3 -0.536 0.30628-0.0707 0.0589-0.0812 0.17222-0.15314 0.22972-0.0631 0.0505-0.15752 0.0405-0.22971 0.0766-0.4051 0.20254-0.0643 0.10065-0.45943 0.38285-0.0929 0.0664-0.20418 0.10209-0.30628 0.15315-0.1021 0.0511-0.20198 0.10678-0.3063 0.15314-1.3248 0.52992 0.30498-0.15249-0.61255 0.30628-0.17387 0.087-0.35986 0.14751-0.53601 0.22972-0.20687 0.0965-0.40839 0.20419-0.61257 0.30628-0.15315 0.0765-0.30976 0.14656-0.45943 0.22971-0.0805 0.0446-0.1508 0.1058-0.22971 0.15314-0.0489 0.0294-0.10748 0.0424-0.15314 0.0766-0.43046 0.32284 0.26351-0.0169-0.536 0.38285-0.17387 0.087-0.36214 0.14278-0.536 0.22971-0.26624 0.13313-0.49372 0.33853-0.76572 0.45943-0.0962 0.0428-0.2101 0.0338-0.30628 0.0765-0.136 0.0604-0.25524 0.15314-0.38285 0.2297-0.12762 0.0766-0.25524 0.15315-0.38287 0.22972-0.12761 0.0766-0.26093 0.14438-0.38285 0.22972-0.40086 0.28061-0.72779 0.65121-1.072 0.99544-0.0766 0.0765-0.14652 0.16037-0.22972 0.22971-0.0708 0.0589-0.16465 0.088-0.22972 0.15313-0.0902 0.0903-0.15314 0.20419-0.22972 0.30628-0.0765 0.1021-0.16206 0.19808-0.2297 0.30629-0.0604 0.0968-0.0868 0.21341-0.15315 0.30629-0.0629 0.0881-0.17598 0.1357-0.22971 0.22971-0.4482 0.78434 0.16453-0.0171-0.15314 0.45943-0.28481 0.4272-0.21181 0.17598-0.38286 0.68913-0.0161 0.0485 0.0162 0.10472 0 0.15316-0.0245 0.0734-0.20283 0.47816-0.22971 0.61256-0.0153 0.0761 0 0.40336 0 0.45944 0 0.10209-0.0201 0.20616 0 0.30628 7e-3 0.0354 0.0511 0.0511 0.0766 0.0765 0.0255 0.0255 0.0455 0.058 0.0765 0.0766 0.0978 0.0587 0.19653 0.12178 0.30628 0.15315 0.0493 0.0141 0.44995 0 0.536 0 0.0264 0 0.49347 0.0142 0.53601 0 0.0541-0.0182 0.10013-0.0554 0.15313-0.0766 0.075-0.03 0.15478-0.0466 0.22971-0.0765 0.053-0.0211 0.0966-0.0685 0.15316-0.0765 1.4394-0.20561-0.68703 0.23473 0.76571-0.0766 0.23009-0.0493 0.45839-0.10699 0.68913-0.15313 0.45675-0.0913 0.57796-0.0825 1.072-0.15315 0.1537-0.0219 0.30965-0.0357 0.45942-0.0765 0.40874-0.11147 0.30452-0.18162 0.68915-0.2297 0.10127-0.0127 0.20618 0.0201 0.30628 0 0.66152-0.1323 0.24852-0.14795 0.84229-0.3063 0.25151-0.0671 0.51544-0.0816 0.76572-0.15314 0.49455-0.14131 1.8049-0.70356 2.144-0.84229 0.25169-0.10292 0.69725-0.27205 0.91885-0.38284 0.38856-0.19429 0.32043-0.23538 0.68914-0.38287 0.0237-9e-3 0.0537 0.0114 0.0766 0 0.36863-0.18431 1.318-0.79532 1.5314-0.91885 0.58316-0.33761 0.31648-0.14191 0.91886-0.38285 0.26495-0.10598 0.50592-0.26479 0.7657-0.38286 0.39021-0.17736 0.44881-0.14072 0.84229-0.38287 0.18698-0.11506 0.34406-0.27622 0.536-0.38284 0.26959-0.14978 0.56643-0.24493 0.84229-0.38287 0.23503-0.11751 0.45409-0.26533 0.68914-0.38285 0.34771-0.17386 0.72896-0.27647 1.072-0.45943 0.21245-0.11332 0.39719-0.27517 0.61256-0.38285 0.27773-0.36162 0.72323-0.23339 1.072-0.38286 0.0846-0.0362 0.14122-0.12786 0.22971-0.15314 0.0982-0.028 0.20419 0 0.30628 0h0.76571c0.0511 0 0.10749-0.0229 0.15315 0 0.0229 0.0114 2e-3 0.0511 0 0.0765-0.0228 0.20452-0.016 0.41591-0.0765 0.61257-0.0438 0.14224-0.14219 0.2625-0.22971 0.38287-0.19182 0.26374-0.54838 0.68062-0.84229 0.84228-1.0673 0.58699-0.8855 0.37875-1.9143 0.61256-0.28378 0.0645-0.55625 0.17609-0.84228 0.22972-0.12544 0.0235-0.25828-0.0276-0.38286 0-0.83604 0.18579 0.20608 0.13875-0.61257 0.22972-0.12684 0.0141-0.2573-0.0229-0.38286 0-0.15883 0.0289-0.30628 0.10209-0.45942 0.15315-0.0927 0.0309-0.29273 0.0855-0.38286 0.15313-0.0578 0.0433-0.10211 0.10209-0.15314 0.15315-0.12762 0.0511-0.26185 0.088-0.38286 0.15313-0.21201 0.11416-0.40056 0.26871-0.61258 0.38287-0.12101 0.0651-0.2599 0.0916-0.38285 0.15313-0.13311 0.0666-0.25275 0.15743-0.38285 0.22972-0.0998 0.0554-0.2042 0.10209-0.30629 0.15314-0.1021 0.0511-0.20197 0.10679-0.30628 0.15315-0.60671 0.26965-0.1791 0.0257-0.8423 0.38285-1.0869 0.58525-0.015 0.0242-0.99541 0.61256-0.19576 0.11746-0.4268 0.1736-0.61257 0.30629-0.0881 0.063-0.13569 0.17599-0.22972 0.22972-0.0913 0.0522-0.20956 0.0351-0.30628 0.0765-0.16917 0.0725-0.29481 0.22397-0.45943 0.30628-0.57824 0.28912-0.19902 0.0204-0.84229 0.30628-0.084 0.0373-0.15167 0.10437-0.22971 0.15315-0.1262 0.0788-0.25729 0.14981-0.38285 0.22971-0.15528 0.0988-0.29703 0.21967-0.45944 0.30629-0.2218 0.1183-0.46429 0.19386-0.68914 0.30628-0.1331 0.0666-0.25275 0.15744-0.38284 0.22971-0.0998 0.0554-0.20842 0.0944-0.30629 0.15315-0.15783 0.0948-0.30629 0.20418-0.45943 0.30628-0.15315 0.1021-0.31219 0.19586-0.45943 0.30629-0.15947 0.1196-0.29611 0.26854-0.45944 0.38285-0.0935 0.0655-0.21859 0.08-0.30628 0.15315-0.0708 0.0589-0.088 0.16464-0.15313 0.22971-0.065 0.065-0.16465 0.0881-0.22972 0.15314-0.0648 0.0648-0.31763 0.4273-0.38287 0.536-0.0293 0.049-0.0449 0.10565-0.0765 0.15315-0.14455 0.21682-0.0492-0.14512-0.22972 0.30628-0.0189 0.0473 0.0161 0.10471 0 0.15314-0.0114 0.0343-0.0604 0.0443-0.0765 0.0765-0.0114 0.0229 6e-3 0.0518 0 0.0765-0.0196 0.0783-0.0766 0.14899-0.0766 0.22972 0 0.0256 0.0511 0 0.0766 0h0.45943c1.5552 0 0.12318 0.0681 1.7611-0.22972 0.25236-0.0459 0.51234-0.0366 0.76571-0.0765 0.23243-0.0367 0.45905-0.10384 0.68914-0.15315 0.12726-0.0272 0.2573-0.0423 0.38287-0.0766 0.15572-0.0425 0.3048-0.10676 0.45941-0.15315 0.48447-0.14534 0.27693-7e-3 0.91887-0.30628 0.18646-0.087 0.35194-0.21426 0.53598-0.30629 0.24588-0.12294 0.51451-0.19464 0.76572-0.30628 1.2082-0.53697-0.44946 0.18644 0.536-0.30629 0.17386-0.0869 0.35552-0.15752 0.53599-0.22971 0.2025-0.081 0.41752-0.1322 0.61258-0.22972 0.21537-0.10768 0.40609-0.25897 0.61258-0.38285 0.17644-0.10588 0.35481-0.20874 0.536-0.30629 0.15074-0.0811 0.31359-0.13998 0.45942-0.22972 0.18699-0.11507 0.36034-0.25111 0.536-0.38285 0.30989-0.23243 0.41497-0.37412 0.76571-0.536 0.198-0.0914 0.41009-0.14872 0.61256-0.22971 1.0168-0.40671 0.0528-0.0771 1.072-0.38286 0.0773-0.0232 0.15057-0.0608 0.22972-0.0766 0.17697-0.0354 0.35762-0.0492 0.53599-0.0765 0.68865-0.10594 0.24322-0.0765 0.99544-0.0765 0.0765 0 0.15706-0.0242 0.22971 0 0.0242 9e-3 -3e-3 0.0512 0 0.0765 0.0223 0.17908 0.0603 0.35626 0.0765 0.53598 9e-3 0.10169 0 0.2042 0 0.3063s0.0247 0.20724 0 0.30629c-0.078 0.3118-0.31894 0.47208-0.536 0.68913-0.15314 0.15316-0.28319 0.33355-0.45942 0.45943-0.18577 0.1327-0.40839 0.2042-0.61258 0.30628-0.10209 0.0511-0.19695 0.12036-0.30628 0.15316-0.14871 0.0446-0.30964 0.0357-0.45942 0.0766-0.27943 0.0762-0.58679 0.26671-0.8423 0.38285-6e-3 2e-3 -0.76356 0.3051-0.7657 0.30628-2e-3 2e-3 -0.6064 0.45532-0.61257 0.45943-0.12384 0.0825-0.26175 0.14321-0.38286 0.22971-0.0587 0.0419-0.1021 0.10209-0.15314 0.15315-0.10211 0.1021-0.19763 0.21121-0.30629 0.30629-0.27225 0.23822-0.36583 0.19568-0.53599 0.536-0.047 0.0941-0.0295 0.21215-0.0765 0.30628-0.0323 0.0645-0.10805 0.0967-0.15315 0.15314-0.0576 0.0719-0.0942 0.15901-0.15315 0.22971-0.0693 0.0831-0.16206 0.14516-0.2297 0.22972-0.0356 0.0445-0.0362 0.11278-0.0765 0.15314-0.0903 0.0902-0.22972 0.12762-0.3063 0.22971-0.0825 0.10997-0.0916 0.25992-0.15313 0.38287-0.0161 0.0323-0.0604 0.0443-0.0766 0.0765-0.0114 0.0228 0.0182 0.0585 0 0.0765-0.15842 0.15843 6e-3 -0.2421-0.15314 0.0766-0.4082 0.81641 0.48968-0.66097-0.30629 0.61256-0.0488 0.078-0.10579 0.1508-0.15313 0.22971-0.0587 0.0979-0.0898 0.21131-0.15315 0.30629-0.0946 0.14193-0.0765 7e-3 -0.0765 0.15315" stroke="#60f" stroke-linecap="round" stroke-linejoin="round" stroke-width="8.6824"/>
</svg>
