<?xml version="1.0" standalone="no"?>
<!DOCTYPE svg PUBLIC "-//W3C//DTD SVG 20010904//EN"
 "http://www.w3.org/TR/2001/REC-SVG-20010904/DTD/svg10.dtd">
<svg version="1.0" xmlns="http://www.w3.org/2000/svg"
 width="462.000000pt" height="462.000000pt" viewBox="0 0 462.000000 462.000000"
 preserveAspectRatio="xMidYMid meet">
<metadata>
Created by potrace 1.14, written by Peter Selinger 2001-2017
</metadata>
<g transform="translate(0.000000,462.000000) scale(0.100000,-0.100000)"
fill="#000000" stroke="none">
<path d="M2797 4524 c-1 -1 -15 -5 -30 -8 -76 -14 -169 -53 -237 -99 -65 -45
-86 -65 -146 -135 -52 -61 -124 -126 -234 -209 -30 -23 -89 -75 -131 -115 -90
-87 -259 -217 -303 -233 -17 -6 -60 -26 -96 -45 -36 -18 -108 -55 -160 -82
-52 -27 -124 -67 -159 -90 -36 -22 -130 -73 -210 -113 -80 -41 -163 -85 -184
-99 -21 -14 -40 -26 -42 -26 -3 0 -30 -16 -61 -36 -68 -43 -169 -128 -244
-203 -31 -31 -71 -68 -88 -83 -18 -15 -53 -51 -77 -80 -56 -64 -210 -293 -225
-333 -6 -16 -29 -66 -50 -110 -21 -45 -41 -95 -44 -111 -3 -17 -13 -47 -21
-67 -8 -21 -13 -37 -11 -37 3 0 -1 -15 -9 -33 -25 -60 -35 -247 -20 -377 12
-107 57 -222 123 -310 66 -89 212 -203 323 -251 45 -19 83 -42 85 -50 15 -98
22 -123 62 -209 68 -149 222 -281 389 -336 84 -28 96 -29 278 -29 149 0 201 4
240 16 107 35 101 37 119 -38 57 -224 235 -414 446 -474 25 -7 52 -15 60 -17
8 -3 69 -5 135 -5 105 -1 130 2 196 25 100 35 179 83 259 155 36 33 81 65 100
73 49 19 131 74 177 118 118 113 193 273 202 429 1 13 92 59 138 69 85 18 287
115 372 177 62 45 207 187 263 257 62 78 133 234 144 320 3 25 8 48 11 53 9
15 3 215 -8 281 -11 58 -10 69 2 76 8 5 25 18 38 29 13 12 27 21 31 21 4 0 45
37 92 83 159 154 246 292 293 467 21 81 24 108 20 233 -4 178 -9 204 -56 302
-41 87 -90 151 -163 214 -69 60 -119 86 -236 121 -151 46 -343 51 -542 15 -9
-2 -25 -8 -35 -13 -10 -6 -34 -14 -54 -20 l-36 -9 31 86 c29 80 31 96 31 216
-1 109 -4 140 -24 195 -43 123 -66 160 -156 258 -118 128 -290 201 -475 200
-49 -1 -91 -2 -93 -4z"/>
</g>
</svg>
